<?xml version="1.0" standalone="no"?>
<!DOCTYPE svg PUBLIC "-//W3C//DTD SVG 20010904//EN"
 "http://www.w3.org/TR/2001/REC-SVG-20010904/DTD/svg10.dtd">
<svg version="1.0" xmlns="http://www.w3.org/2000/svg"
 width="512.000000pt" height="512.000000pt" viewBox="0 0 512.000000 512.000000"
 preserveAspectRatio="xMidYMid meet">
<metadata>
Created by potrace 1.11, written by Peter Selinger 2001-2013
</metadata>
<g transform="translate(0.000000,512.000000) scale(0.100000,-0.100000)"
fill="#000000" stroke="none">
<path d="M2078 5115 c-2 -2 -102 -6 -223 -10 -121 -3 -242 -8 -270 -10 -27 -2
-99 -6 -160 -10 -60 -3 -126 -8 -145 -10 -19 -1 -71 -6 -115 -10 -44 -3 -91
-8 -105 -10 -14 -2 -47 -6 -75 -10 -160 -19 -262 -44 -299 -71 -18 -12 -14
-22 67 -166 91 -163 226 -431 272 -538 15 -36 35 -83 45 -105 26 -60 66 -191
84 -275 16 -77 17 -296 1 -370 -29 -144 -94 -271 -288 -562 -228 -342 -268
-424 -322 -658 -64 -279 -90 -502 -90 -785 0 -282 21 -467 80 -695 41 -155
137 -331 310 -565 29 -39 57 -80 63 -92 6 -11 31 -30 54 -41 53 -25 200 -55
323 -67 33 -4 76 -9 95 -11 19 -3 67 -7 105 -10 39 -3 102 -7 140 -9 381 -26
1341 -26 1765 0 186 11 389 29 470 40 14 2 49 7 79 10 30 4 61 8 70 10 47 9
82 19 136 36 56 19 64 25 115 96 202 280 306 465 335 599 2 10 13 60 24 109
10 50 22 115 26 145 4 30 9 64 11 75 25 127 24 664 -1 755 -2 8 -6 42 -10 75
-8 82 -60 336 -91 443 -38 135 -110 270 -287 534 -249 372 -305 507 -309 739
-3 265 120 586 451 1174 28 50 51 94 51 98 0 16 -107 56 -190 71 -99 18 -141
24 -230 31 -36 3 -81 7 -100 10 -33 4 -67 6 -290 20 -238 15 -353 17 -937 19
-348 2 -634 2 -635 1z m-853 -425 c33 -6 76 -12 95 -15 19 -3 44 -7 55 -9 11
-2 40 -7 65 -11 197 -30 205 -31 369 -50 30 -4 61 -8 70 -10 131 -24 705 -24
951 0 19 2 84 6 144 10 60 4 116 8 125 10 9 1 54 6 101 10 47 3 92 8 100 10 8
2 51 6 95 10 44 3 98 8 120 11 49 6 98 11 190 19 39 3 79 9 90 12 11 3 17 2
13 -2 -5 -5 -181 -55 -248 -70 -8 -2 -80 -19 -160 -39 -115 -29 -321 -77 -430
-101 -21 -4 -269 -53 -305 -59 -280 -52 -562 -61 -875 -31 -19 2 -75 7 -125
10 l-89 8 17 -26 c9 -14 25 -41 35 -59 11 -18 33 -55 49 -83 167 -273 345
-686 402 -930 20 -83 30 -259 18 -305 -2 -8 -7 -33 -12 -55 -30 -150 -158
-353 -376 -596 -206 -230 -250 -281 -300 -345 -108 -136 -189 -278 -223 -389
-20 -65 -44 -162 -50 -200 -2 -16 -8 -50 -11 -75 -4 -25 -9 -52 -10 -60 -1 -8
-6 -46 -9 -85 -4 -38 -9 -86 -11 -105 -10 -88 -16 -225 -20 -474 -3 -148 -6
-271 -8 -272 -3 -4 -127 326 -166 441 -39 119 -98 316 -107 361 -1 6 -11 49
-22 95 -40 161 -57 296 -55 444 1 199 47 310 268 655 47 73 79 127 126 215 17
33 62 110 99 170 37 61 103 169 146 240 204 333 236 515 153 850 -54 218 -162
504 -293 778 -28 59 -51 107 -51 107 0 0 27 -5 60 -10z"/>
</g>
</svg>
